<svg xmlns="http://www.w3.org/2000/svg" width="46" height="46" viewBox="0 0 46 46">
  <g id="Group_11" data-name="Group 11" transform="translate(-1905 -327)">
    <rect id="Rectangle_5" data-name="Rectangle 5" width="46" height="46" transform="translate(1905 327)" fill="none"/>
    <path id="home-solid" d="M19.694,40.219,6.734,50.892v11.52a1.125,1.125,0,0,0,1.125,1.125l7.877-.02a1.125,1.125,0,0,0,1.119-1.125V55.665a1.125,1.125,0,0,1,1.125-1.125h4.5A1.125,1.125,0,0,1,23.6,55.665v6.723a1.125,1.125,0,0,0,1.125,1.128l7.874.022a1.125,1.125,0,0,0,1.125-1.125V50.885L20.769,40.219a.857.857,0,0,0-1.075,0Zm20.471,7.255L34.288,42.63V32.894a.844.844,0,0,0-.844-.844H29.508a.844.844,0,0,0-.844.844V38L22.372,32.82a3.374,3.374,0,0,0-4.288,0L.291,47.473a.844.844,0,0,0-.112,1.188L1.971,50.84a.844.844,0,0,0,1.189.115L19.694,37.337a.857.857,0,0,1,1.075,0L37.3,50.955a.844.844,0,0,0,1.188-.112l1.792-2.179a.844.844,0,0,0-.119-1.19Z" transform="translate(1907.907 302.181)" fill="#fff"/>
  </g>
</svg>
