<svg xmlns="http://www.w3.org/2000/svg" xmlns:xlink="http://www.w3.org/1999/xlink" width="1006.813" height="762" viewBox="0 0 1006.813 762">
  <defs>
    <linearGradient id="linear-gradient" x1="0.5" y1="1" x2="0.5" gradientUnits="objectBoundingBox">
      <stop offset="0" stop-color="gray" stop-opacity="0.251"/>
      <stop offset="0.54" stop-color="gray" stop-opacity="0.122"/>
      <stop offset="1" stop-color="gray" stop-opacity="0.102"/>
    </linearGradient>
    <linearGradient id="linear-gradient-2" x1="0.5" y1="1" x2="0.5" y2="0" xlink:href="#linear-gradient"/>
    <linearGradient id="linear-gradient-3" x1="0.5" y1="1" x2="0.5" y2="0" xlink:href="#linear-gradient"/>
  </defs>
  <g id="Group_9" data-name="Group 9" transform="translate(-3428 260)">
    <g id="houseIllustration" transform="translate(3428.001 -260)">
      <rect id="Rectangle_4" data-name="Rectangle 4" width="86" height="55" transform="translate(365.406 113)" fill="#b8f3d2"/>
      <path id="Path_85" data-name="Path 85" d="M1061.406,382V265h-65V189h-44v76h-65V382h-36V119h-73V94h-97V69h-96V94h-91v25h-79V381h-42V264h-65V188h-44v76h-65V381h-42V796h96V649h66V796h258V625h112V796h156v1h96V650h66V797h96V382Zm-869.5,50h38v30h-38Zm.5,84h38v30h-38Zm38.5,114h-38V600h38Zm99.5-271h-88V341h88Zm0-26h-88V315h88Zm0-26h-88V289h88Zm12.5,125h38v30h-38Zm.5,84h38v30h-38Zm38.5,114h-38V600h38Zm155.5-50h-70V549h70Zm0-89h-70V460h70Zm0-89h-70V371h70Zm0-89h-70V282h70Zm0-89h-70V193h70Zm131,356h-70V549h70Zm0-89h-70V460h70Zm0-89h-70V371h70Zm0-89h-70V282h70Zm-70-89v0Zm201,356h-70V549h70Zm0-89h-70V460h70Zm0-89h-70V371h70Zm0-89h-70V282h70Zm0-89h-70V193h70Zm80.5,209h38v30h-38Zm.5,84h38v30h-38Zm38.5,114h-38V601h38Zm99.5-271h-88V342h88Zm0-26h-88V316h88Zm0-26h-88V290h88Zm12.5,125h38v30h-38Zm.5,84h38v30h-38Zm38.5,114h-38V601h38Z" transform="translate(-96.594 -69)" fill="#d1d0d0"/>
      <path id="Path_86" data-name="Path 86" d="M216.594,694.71c-.28,3.956-.718,8.381-1.394,13.03l12.226-13.559.067.227a35.627,35.627,0,0,0-3.576-9.331l.078.214Z" transform="translate(-96.594 -69)" fill="#b8f3d2"/>
      <path id="Path_87" data-name="Path 87" d="M216.642,694.016l7.169-9.123a18.767,18.767,0,0,0-6.412-6.833c-.131-.078-.263-.152-.4-.225C217.043,678.912,217.23,685.237,216.642,694.016Z" transform="translate(-96.594 -69)" fill="#b8f3d2"/>
      <path id="Path_88" data-name="Path 88" d="M210.174,729.783q-.473,1.439-.976,2.826l18-10.557.025.265q.564-2.462.94-4.924L210.191,729.9Z" transform="translate(-96.594 -69)" fill="#b8f3d2"/>
      <path id="Path_89" data-name="Path 89" d="M212.678,720.922l16.216-13.373.046.25a56.007,56.007,0,0,0-1.39-13.147l-12.459,13.817Q214.109,715,212.678,720.922Z" transform="translate(-96.594 -69)" fill="#b8f3d2"/>
      <path id="Path_90" data-name="Path 90" d="M214.813,708.206l-19.4-21.649.1-.245a46.76,46.76,0,0,0-4.656,8.2L213,718.082C213.759,714.641,214.351,711.31,214.813,708.206Z" transform="translate(-96.594 -69)" fill="#b8f3d2"/>
      <path id="Path_91" data-name="Path 91" d="M190.649,694.995h0c.035-.08.065-.168.1-.248Z" transform="translate(-96.594 -69)" fill="#b8f3d2"/>
      <path id="Path_92" data-name="Path 92" d="M189.569,697.651l-.1.247c.032-.085.068-.162.1-.247Z" transform="translate(-96.594 -69)" fill="#b8f3d2"/>
      <path id="Path_93" data-name="Path 93" d="M212.872,718.656,190.649,695q-.563,1.291-1.08,2.655l22.713,23.508Q212.592,719.9,212.872,718.656Z" transform="translate(-96.594 -69)" fill="#b8f3d2"/>
      <path id="Path_94" data-name="Path 94" d="M228.216,717.076a66.882,66.882,0,0,0,.722-8.987L212.5,721.644q-.977,3.943-2.149,7.581l17.828-12.407Z" transform="translate(-96.594 -69)" fill="#b8f3d2"/>
      <path id="Path_95" data-name="Path 95" d="M186.622,718.763l17.988,23.469a80.438,80.438,0,0,0,3.909-8.812l-21.95-23.054a64.693,64.693,0,0,0-.072,8.661Z" transform="translate(-96.594 -69)" fill="#b8f3d2"/>
      <path id="Path_96" data-name="Path 96" d="M216.675,677.814l.161-.072c-3.94-2.1-8.2-1.879-12.292.255l11.781,16C216.959,684.5,216.679,677.909,216.675,677.814Z" transform="translate(-96.594 -69)" fill="#b8f3d2"/>
      <path id="Path_97" data-name="Path 97" d="M208.615,734.179a79.892,79.892,0,0,1-3.533,7.946l18.094-9.362.018.26a31.688,31.688,0,0,0,3.172-7.34q.431-1.517.787-3.043l-18.219,10.682C208.828,733.609,208.723,733.9,208.615,734.179Z" transform="translate(-96.594 -69)" fill="#b8f3d2"/>
      <path id="Path_98" data-name="Path 98" d="M216.277,694.707l-12.052-16.369.113-.233a26.972,26.972,0,0,0-8.68,8.009L214.9,707.587C215.57,702.99,216,698.617,216.277,694.707Z" transform="translate(-96.594 -69)" fill="#b8f3d2"/>
      <path id="Path_99" data-name="Path 99" d="M208.717,732.891a108.56,108.56,0,0,0,3.426-11.172l-22.769-23.566q-.813,2.208-1.494,4.593a38.9,38.9,0,0,0-1.255,6.969L208.7,732.9Z" transform="translate(-96.594 -69)" fill="#b8f3d2"/>
      <path id="Path_100" data-name="Path 100" d="M232.1,758.315c-2.738,2.868-5.9,6-9.385,9.146l18.064-2.645-.093.218a35.624,35.624,0,0,0,3.2-9.468l-.077.215Z" transform="translate(-96.594 -69)" fill="#b8f3d2"/>
      <path id="Path_101" data-name="Path 101" d="M243.344,746c-.051-.144-.106-.285-.161-.425-.657.855-4.547,5.847-10.6,12.232l11.341-2.454a18.768,18.768,0,0,0-.58-9.353Z" transform="translate(-96.594 -69)" fill="#b8f3d2"/>
      <path id="Path_102" data-name="Path 102" d="M204.79,781.234q-1.282.807-2.554,1.554l20.6,3.353-.15.22q2.005-1.537,3.865-3.193l-21.826-1.831Z" transform="translate(-96.594 -69)" fill="#b8f3d2"/>
      <path id="Path_103" data-name="Path 103" d="M212.37,776.007l21.019.043-.124.222a56.011,56.011,0,0,0,7.315-11.013l-18.408,2.7Q217.248,772.359,212.37,776.007Z" transform="translate(-96.594 -69)" fill="#b8f3d2"/>
      <path id="Path_104" data-name="Path 104" d="M205.283,780.918l21.644,1.815-.138.222a66.886,66.886,0,0,0,6.288-6.461l-21.3-.043Q208.507,778.864,205.283,780.918Z" transform="translate(-96.594 -69)" fill="#b8f3d2"/>
      <path id="Path_105" data-name="Path 105" d="M178.773,791.629c.153-.155.316-.323.476-.488a55.642,55.642,0,0,0,12.845-3.67l.588-15.6q.262-.6.509-1.2l-.626,16.6a80.418,80.418,0,0,0,8.631-4.294l-2.01-29,.472-.247,2.007,28.961.02,0a108.565,108.565,0,0,0,9.764-6.419l-2.189-28.536c.155-.114.31-.224.465-.34l2.189,28.534q1.041-.772,2.05-1.552L212.159,745.5c.155-.127.309-.254.463-.383l1.807,28.909c2.779-2.166,5.36-4.354,7.7-6.45l-1.136-29.05.236-.122c-.807.21-1.626.46-2.453.732a40.988,40.988,0,0,0,4.18-5.7l-18.268,9.451a61.465,61.465,0,0,1-4.257,6.933c-.326.308-.653.616-.975.938l.024.347c-.149.2-.3.394-.448.587l-.032-.468c-.231.237-.455.487-.683.73a57.729,57.729,0,0,0,6.063-9.269l-17.857-23.3c.122,2.082.325,4.179.587,6.258a35.238,35.238,0,0,0-5.986-7.313l.141.18-4.127,11.245c.957,3.849,1.908,8.192,2.7,12.823l7.334-16.445c.033.256.069.512.1.768l-7.316,16.4q1.086,6.516,1.555,12.589l8.781-13.793c.05.2.1.4.15.592l-8.876,13.942q.29,4.052.3,7.874L192.6,750.348c.057.186.113.367.169.546L181.92,765.206l-.053-.11q0,1.514-.055,2.989l12.108-13.632q.1.285.179.525l-12.317,13.868c-.013.3-.024.611-.039.913a79.933,79.933,0,0,1-.9,8.649l1.168-1.183q-.332.689-.647,1.358l-.665.673c-.076.438-.163.865-.247,1.3q-.368.808-.709,1.577c.22-.984.424-1.972.6-2.97l-24.183-16.637c6.309,16.142,18.19,31.5,18.951,32.471.617-1.153,1.178-2.34,1.694-3.552.15-.014.3-.028.449-.044-.062.149-.126.3-.189.443-.075.008-.152.02-.227.028l.193.053c-.363.846-.739,1.678-1.142,2.482.528-.474,1.332-1.224,2.293-2.176,5.687,1.452,21.006,4.556,34.124-.03l-20.1-4.372a56.2,56.2,0,0,1-13.429,3.8ZM192.9,766.2l.482-.488-.028.731-.482.488Z" transform="translate(-96.594 -69)" fill="#b8f3d2"/>
      <path id="Path_106" data-name="Path 106" d="M242.942,745.354l.17.047c-1.692-4.134-5.121-6.68-9.63-7.644L232.35,757.6C238.9,750.687,242.885,745.43,242.942,745.354Z" transform="translate(-96.594 -69)" fill="#b8f3d2"/>
      <path id="Path_107" data-name="Path 107" d="M200.785,783.625A79.906,79.906,0,0,1,193,787.491l19.907,4.33-.152.212a31.683,31.683,0,0,0,7.125-3.63q1.3-.894,2.547-1.842l-20.846-3.393C201.313,783.322,201.048,783.476,200.785,783.625Z" transform="translate(-96.594 -69)" fill="#b8f3d2"/>
      <path id="Path_108" data-name="Path 108" d="M222.589,767.155c3.445-3.116,6.566-6.209,9.272-9.044l1.159-20.294.236-.107a26.971,26.971,0,0,0-11.793.633Z" transform="translate(-96.594 -69)" fill="#b8f3d2"/>
      <path id="Path_109" data-name="Path 109" d="M180.961,718.189a18.768,18.768,0,0,0-8.21-4.517c-.149-.034-.3-.063-.446-.091.37,1.013,2.5,6.97,4.658,15.5Z" transform="translate(-96.594 -69)" fill="#b8f3d2"/>
      <path id="Path_110" data-name="Path 110" d="M179.609,743.143l-25.145-14.592.023-.265a46.763,46.763,0,0,0-1.894,9.233l28.344,15.576C180.6,749.588,180.129,746.237,179.609,743.143Z" transform="translate(-96.594 -69)" fill="#b8f3d2"/>
      <path id="Path_111" data-name="Path 111" d="M152.545,738.047h0c.008-.087.01-.18.019-.266Z" transform="translate(-96.594 -69)" fill="#b8f3d2"/>
      <path id="Path_112" data-name="Path 112" d="M152.339,740.906l-.018.266c0-.091.015-.176.019-.266Z" transform="translate(-96.594 -69)" fill="#b8f3d2"/>
      <path id="Path_113" data-name="Path 113" d="M180.994,753.68l-28.448-15.633q-.137,1.4-.206,2.859l28.867,15.336Q181.112,754.95,180.994,753.68Z" transform="translate(-96.594 -69)" fill="#b8f3d2"/>
      <path id="Path_114" data-name="Path 114" d="M181.418,769.066l-28-15.141a64.715,64.715,0,0,0,2.608,8.259l.037-.289,24.362,16.759A80.45,80.45,0,0,0,181.418,769.066Z" transform="translate(-96.594 -69)" fill="#b8f3d2"/>
      <path id="Path_115" data-name="Path 115" d="M171.986,713.663l.131-.118c-4.4-.784-8.383.749-11.611,4.042l16.151,11.577C174.324,719.936,172.02,713.752,171.986,713.663Z" transform="translate(-96.594 -69)" fill="#b8f3d2"/>
      <path id="Path_116" data-name="Path 116" d="M176.829,729.852l-16.521-11.843.035-.257a26.97,26.97,0,0,0-5.779,10.3l24.94,14.473C178.717,737.948,177.775,733.656,176.829,729.852Z" transform="translate(-96.594 -69)" fill="#b8f3d2"/>
      <path id="Path_117" data-name="Path 117" d="M181.442,768.5a108.552,108.552,0,0,0-.2-11.684l-28.939-15.374q-.091,2.351,0,4.83a38.9,38.9,0,0,0,.96,7.016l28.161,15.227Z" transform="translate(-96.594 -69)" fill="#b8f3d2"/>
      <path id="Path_143" data-name="Path 143" d="M1008.339,737.906l-.018.266c0-.091.015-.176.019-.266Z" transform="translate(-96.594 -69)" fill="#b8f3d2"/>
      <path id="Path_144" data-name="Path 144" d="M1008.545,735.047h0c.008-.087.01-.18.019-.266Z" transform="translate(-96.594 -69)" fill="#b8f3d2"/>
      <path id="Path_150" data-name="Path 150" d="M60.812,727h946v13.535A21.465,21.465,0,0,1,985.347,762H82.276a21.465,21.465,0,0,1-21.465-21.465Z" fill="#2f2e41"/>
      <rect id="Rectangle_3" data-name="Rectangle 3" width="946" height="19" transform="translate(60.812 716)" fill="#3f3d56"/>
      <path id="Path_151" data-name="Path 151" d="M890.549,134.974l10.865,6.89-6.6-11.994a10.743,10.743,0,0,1,6.57-2.345l.175,0a12.591,12.591,0,0,0,2.254-.167l3.682,2.335-1.578-2.87a13.105,13.105,0,0,0,6.441-4.889l6.59,4.179-4.163-7.569c3.854-4.626,9.049-7.463,14.765-7.463,6.853,0,12.958,4.076,16.9,10.426a12.632,12.632,0,0,0,11.17,6.023q.184-.007.368-.007c7.566,0,13.7,8.578,13.7,19.159s-6.133,19.159-13.7,19.159a10.28,10.28,0,0,1-4.771-1.195,19.768,19.768,0,0,0-16.58-.324,17.284,17.284,0,0,1-14.1.033,19.782,19.782,0,0,0-16.434.318,10.271,10.271,0,0,1-4.721,1.168c-7.566,0-13.7-8.578-13.7-19.159a24.328,24.328,0,0,1,2.86-11.711Z" transform="translate(-96.594 -69)" fill="#d1d0d0"/>
      <path id="Path_152" data-name="Path 152" d="M337.791,191.244l6.911,4.383-4.2-7.629a6.834,6.834,0,0,1,4.179-1.492h.111a8.007,8.007,0,0,0,1.434-.106l2.342,1.485-1-1.826a8.336,8.336,0,0,0,4.1-3.11l4.192,2.658-2.648-4.815a12.268,12.268,0,0,1,9.392-4.747c4.359,0,8.243,2.593,10.75,6.632a8.035,8.035,0,0,0,7.105,3.831q.117,0,.234,0c4.813,0,8.714,5.457,8.714,12.188s-3.9,12.188-8.714,12.188a6.539,6.539,0,0,1-3.035-.76,12.575,12.575,0,0,0-10.547-.206,11,11,0,0,1-8.967.021,12.584,12.584,0,0,0-10.454.2,6.533,6.533,0,0,1-3,.743c-4.813,0-8.714-5.457-8.714-12.188a15.476,15.476,0,0,1,1.82-7.449Z" transform="translate(-96.594 -69)" fill="#d1d0d0"/>
      <path id="Path_153" data-name="Path 153" d="M151.791,214.738l6.911,4.383-4.2-7.629A6.834,6.834,0,0,1,158.685,210h.111a8.007,8.007,0,0,0,1.434-.106l2.342,1.485-1-1.826a8.336,8.336,0,0,0,4.1-3.11l4.192,2.658-2.648-4.815a12.268,12.268,0,0,1,9.392-4.747c4.359,0,8.243,2.593,10.75,6.632A8.035,8.035,0,0,0,194.457,210q.117,0,.234,0c4.813,0,8.714,5.457,8.714,12.188s-3.9,12.188-8.714,12.188a6.539,6.539,0,0,1-3.035-.76,12.575,12.575,0,0,0-10.547-.206,11,11,0,0,1-8.967.021,12.584,12.584,0,0,0-10.454.2,6.533,6.533,0,0,1-3,.743c-4.813,0-8.714-5.457-8.714-12.188A15.476,15.476,0,0,1,151.791,214.738Z" transform="translate(-96.594 -69)" fill="#d1d0d0"/>
      <path id="Path_185" data-name="Path 185" d="M190.642,678.908a26.49,26.49,0,0,0,3.5-13.429c0-12.136-7.515-21.975-16.786-21.975s-16.786,9.838-16.786,21.975a26.49,26.49,0,0,0,3.5,13.429,27.488,27.488,0,0,0,0,26.858,27.487,27.487,0,0,0,0,26.858,27.488,27.488,0,0,0,0,26.858,26.49,26.49,0,0,0-3.5,13.429c0,12.136,7.515,21.975,16.786,21.975s16.786-9.838,16.786-21.975a26.49,26.49,0,0,0-3.5-13.429,27.487,27.487,0,0,0,0-26.858,27.488,27.488,0,0,0,0-26.858A27.488,27.488,0,0,0,190.642,678.908Z" transform="translate(-96.594 -69)" fill="#3f3d56"/>
      <ellipse id="Ellipse_18" data-name="Ellipse 18" cx="16.786" cy="21.975" rx="16.786" ry="21.975" transform="translate(63.979 547.647)" fill="#3f3d56"/>
      <ellipse id="Ellipse_19" data-name="Ellipse 19" cx="16.786" cy="21.975" rx="16.786" ry="21.975" transform="translate(63.979 520.789)" fill="#3f3d56"/>
      <path id="Path_186" data-name="Path 186" d="M240.2,427.967a80.587,80.587,0,0,0,6.251-9.2l-44.107-7.244,47.7.355a80.547,80.547,0,0,0,1.535-63.71l-64,33.2L246.6,337.98a80.412,80.412,0,1,0-132.8,89.987,80.451,80.451,0,0,0-9.17,14.663l57.254,29.745-61.049-20.489A80.454,80.454,0,0,0,113.8,527.394a80.406,80.406,0,1,0,126.4,0,80.417,80.417,0,0,0,0-99.426Z" transform="translate(-96.594 -69)" fill="#f2f2f2"/>
      <path id="Path_187" data-name="Path 187" d="M96.594,477.681A80.061,80.061,0,0,0,113.8,527.394a80.406,80.406,0,1,0,126.4,0C250.975,513.713,96.594,468.656,96.594,477.681Z" transform="translate(-96.594 -69)" fill="#f2f2f2"/>
      <path id="Path_188" data-name="Path 188" d="M240.2,427.967a80.587,80.587,0,0,0,6.251-9.2l-44.107-7.244,47.7.355a80.547,80.547,0,0,0,1.535-63.71l-64,33.2L246.6,337.98a80.412,80.412,0,1,0-132.8,89.987,80.451,80.451,0,0,0-9.17,14.663l57.254,29.745-61.049-20.489A80.454,80.454,0,0,0,113.8,527.394a80.406,80.406,0,1,0,126.4,0,80.417,80.417,0,0,0,0-99.426Z" transform="translate(-96.594 -69)" fill="#57b894"/>
      <path id="Path_189" data-name="Path 189" d="M96.594,477.681A80.061,80.061,0,0,0,113.8,527.394a80.406,80.406,0,1,0,126.4,0C250.975,513.713,96.594,468.656,96.594,477.681Z" transform="translate(-96.594 -69)" opacity="0.1"/>
      <path id="Path_192" data-name="Path 192" d="M706.452,263.556l-39.9,39.9-18.9-18.9-7.359,7.359,26.237,26.237,47.281-47.231Z" transform="translate(-262 -182)" fill="#57b894"/>
    </g>
    <path id="Path_43" data-name="Path 43" d="M817.4,538.908l-.237.251L717.74,444.892l-13.237-59.7c0-.362.042-.7.049-1.08l-.62-2.787a47.143,47.143,0,0,0-4.549-20.343l10.9-103.7v-1.3c0-1.777-.091-3.525-.258-5.253a25.91,25.91,0,0,0-.453-3.483,54.507,54.507,0,0,0-49.839-45.6h0v-9.4q2.229-.7,4.361-1.547a30.243,30.243,0,0,0,13.237,2.9c7.078.181,15.786-2.473,22.293-13.829,12.965-22.69,44.726-40.839,25.282-58.987s-17.18-15.884-20.419-32.743-2.919-23.687-32.743-24.955c-7.921-.341-15.013-.592-21.193-.585-17.862-.077-28.4,1.853-29.371,9.663-1.3,10.373-40.741,1.177-16.156,43.047,0,0,.216.327.627.906a49.261,49.261,0,0,0,25.575,76.132v11.272a29.594,29.594,0,0,0-18.775,26.6l-68.8-32.618a9.573,9.573,0,0,0,.7-1.853c-14.261-3.887-17.863,6.8-17.863,6.8,5.246,1.679,8.994,1.393,11.662.286l-2.787,8.172c-6.639-5.72-20.252-15.048-25.972-1.393-7.705,18.42,20.67,25.01,20.67,25.01l.056-.125L612.2,278l-.139,1.226.327.174v79.908h-.327l.327.571v.871L488.007,470.126,464.32,591.395h-7.169a11.021,11.021,0,0,0-11.021,11.021h42.782l-1.944-11.021H476l10.777-.2L551.8,480.555l102.313-46.266.864,1.526.209-.1,39.208,69.465L803.945,552.5l3.79-3.609-11.063,11.446a11.021,11.021,0,0,0,.258,15.584l29.741-30.751Z" transform="translate(3582.847 -108.413)" fill="url(#linear-gradient)"/>
    <path id="Path_44" data-name="Path 44" d="M706.451,299.687l-40.644,43.089-90.748-64.63,6.618-19.646,77.511,36.749,33.2-36.749S707.866,277.512,706.451,299.687Z" transform="translate(3543.738 -167.867)" fill="#a5dabc"/>
    <path id="Path_45" data-name="Path 45" d="M698.431,345.121l40.644-43.089c.961-15.013-5.817-28.563-10.3-35.76-.564,0-1.129-.042-1.7-.042h-6.925l-28.34,31.35-7.113-3.372v41.1Z" transform="translate(3510.481 -170.212)" opacity="0.1"/>
    <path id="Path_46" data-name="Path 46" d="M513.12,425.2l80.472,142.573,107.085,46.252,13.306-12.672L616.4,508.842l-18.378-83.008Z" transform="translate(3682.354 -174.891)" fill="#2f2e41"/>
    <path id="Path_47" data-name="Path 47" d="M686.94,491.194l40.671,72.035,21.248-9.607a46.314,46.314,0,0,0,27.219-40.929L771.2,490.685l-83.224-.425Z" transform="translate(3509.802 -238.167)" opacity="0.1"/>
    <path id="Path_48" data-name="Path 48" d="M623.892,488,500.9,596.095,477.71,714.842l22.022-.4L563.3,606.287,684.759,551.4a46.335,46.335,0,0,0,22.356-62.972h0Z" transform="translate(3573.268 -237.482)" fill="#2f2e41"/>
    <path id="Path_49" data-name="Path 49" d="M770.48,423.932l-84.91-1.254V296.986A28.926,28.926,0,0,1,714.5,268.06h13.474a53.274,53.274,0,0,1,53.274,53.274Z" transform="translate(3510.217 -170.767)" opacity="0.1"/>
    <path id="Path_50" data-name="Path 50" d="M770.48,422.126l-84.91-1.268V295.166A28.926,28.926,0,0,1,714.5,266.24h13.474a53.274,53.274,0,0,1,53.274,53.274Z" transform="translate(3510.217 -170.215)" fill="#b3e6ca"/>
    <path id="Path_51" data-name="Path 51" d="M494.11,824.08h-41.8a10.771,10.771,0,0,1,10.77-10.771h29.149Z" transform="translate(3580.973 -336.159)" fill="#4ea585"/>
    <path id="Path_52" data-name="Path 52" d="M972.129,745.787,943.05,775.848h0a10.77,10.77,0,0,1-.258-15.229l20.266-20.949Z" transform="translate(3433.111 -313.822)" fill="#4ea585"/>
    <path id="Path_53" data-name="Path 53" d="M780.8,332.76l-54.493,43.089L685.12,353.967,689.1,318.3l28.333,10.018,21.207-17.507c17.145-14.149,43.354-1.449,42.239,20.754Q780.849,332.161,780.8,332.76Z" transform="translate(3510.354 -181.928)" opacity="0.1"/>
    <path id="Path_54" data-name="Path 54" d="M539.95,158.26h27.867v38.268a11.147,11.147,0,0,1-11.147,11.147H551.1a11.147,11.147,0,0,1-11.147-11.147Z" transform="translate(3674.215 -93.919)" fill="#fda57d"/>
    <path id="Path_55" data-name="Path 55" d="M711.95,245.236a48.265,48.265,0,0,0,27.867,0V222.58H711.95Z" transform="translate(3502.215 -156.971)" opacity="0.1"/>
    <circle id="Ellipse_10" data-name="Ellipse 10" cx="48.154" cy="48.154" r="48.154" transform="translate(4179.952 -7.262)" fill="#fda57d"/>
    <path id="Path_56" data-name="Path 56" d="M671.755,122.746s17.061,25.721,32.9,20.649l24.293,52.856s21.332,11.774,34-10.4,43.723-39.919,24.711-57.663-31.684-15.842-34.833-32.318,12.017-22.8-17.11-24.07-46.886-1.268-48.154,8.869S647.728,81.817,671.755,122.746Z" transform="translate(3516.793 -111.06)" opacity="0.1"/>
    <path id="Path_57" data-name="Path 57" d="M673.575,122.755s17.061,25.721,32.9,20.649l24.293,52.863s21.332,11.774,34-10.4S808.5,145.947,789.486,128.2s-16.79-15.522-19.96-32-2.849-23.129-32-24.383-46.886-1.268-48.154,8.869S649.547,81.826,673.575,122.755Z" transform="translate(3516.242 -111.068)" fill="#2f2e41"/>
    <path id="Path_58" data-name="Path 58" d="M541.49,221.535l26.808-17.6,8.235,8.736L558.788,230.4Z" transform="translate(3673.748 -107.772)" fill="#b3e6ca"/>
    <ellipse id="Ellipse_11" data-name="Ellipse 11" cx="4.438" cy="9.503" rx="4.438" ry="9.503" transform="translate(4223.668 37.094)" fill="#fda57d"/>
    <path id="Path_59" data-name="Path 59" d="M875.385,96.419h0a15.8,15.8,0,0,1-9.057,20.6L534.84,238.239,528.57,223,854.645,87.655a15.8,15.8,0,0,1,20.74,8.764Z" transform="translate(3557.84 -115.678)" fill="url(#linear-gradient-2)"/>
    <path id="Path_60" data-name="Path 60" d="M874.131,97.722h0a15.591,15.591,0,0,1-8.973,20.336l-327.2,119.694L531.74,222.7,853.663,89.09a15.591,15.591,0,0,1,20.468,8.632Z" transform="translate(3556.879 -116.117)" fill="#72351c"/>
    <path id="Path_61" data-name="Path 61" d="M745.762,323.337l-54.493,43.089L569.61,301.8l8.869-19.646L682.393,318.9,703.6,301.392c17.145-14.149,43.354-1.449,42.239,20.754Q745.811,322.745,745.762,323.337Z" transform="translate(3545.392 -175.041)" opacity="0.1"/>
    <path id="Path_62" data-name="Path 62" d="M745.762,325.166l-54.493,43.089L569.61,303.618,578.479,284l103.915,36.728L703.6,303.221c17.145-14.149,43.354-1.449,42.239,20.754Q745.811,324.574,745.762,325.166Z" transform="translate(3545.392 -175.602)" fill="#b8f3d2"/>
    <path id="Path_63" data-name="Path 63" d="M560.7,298.963s-27.734-6.444-20.2-24.446,29.072,4.807,29.072,4.807Z" transform="translate(3554.616 -170.626)" fill="#fda57d"/>
    <path id="Path_64" data-name="Path 64" d="M582.465,257.643s-2.612,11.4-17.465,6.646C565,264.324,568.525,253.874,582.465,257.643Z" transform="translate(3546.79 -167.358)" fill="#fda57d"/>
    <g id="Group_8" data-name="Group 8" transform="translate(306.611 -1483.218) rotate(20)">
      <circle id="Ellipse_12" data-name="Ellipse 12" cx="29.197" cy="29.197" r="29.197" transform="translate(3838 24.227)" fill="url(#linear-gradient-3)"/>
      <g id="Group_7" data-name="Group 7" transform="translate(3839.579 25.806)">
        <path id="Path_65" data-name="Path 65" d="M288,180.65a27.051,27.051,0,0,1,28.84,10.1c3.054,4.363,4.808,9.555,8.412,13.429,9.119,9.782,25.576,6.771,36.92-.253s21.073-17.251,33.883-21c6.981-2.042,14.354-1.981,21.614-1.911,14.642.148,29.669.2,43.377-5.017" transform="translate(-188.357 -166.391)" fill="none" stroke="#2f2e41" stroke-miterlimit="10" stroke-width="1"/>
        <path id="Path_66" data-name="Path 66" d="M288,202.174a27.051,27.051,0,0,1,28.84,10.1c3.054,4.363,4.808,9.555,8.412,13.429,9.119,9.764,25.576,6.763,36.92-.227s21.073-17.251,33.883-21c6.981-2.042,14.354-1.981,21.614-1.911,14.642.148,29.669.2,43.377-5.017" transform="translate(-188.357 -169.137)" fill="none" stroke="#2f2e41" stroke-miterlimit="10" stroke-width="1"/>
        <circle id="Ellipse_13" data-name="Ellipse 13" cx="27.618" cy="27.618" r="27.618" fill="#f5f5f5"/>
      </g>
      <g id="Group_6" data-name="Group 6" transform="translate(3846.116 36.399)">
        <path id="Path_67" data-name="Path 67" d="M178.43,180s10.227,24.668.489,35" transform="translate(-178.43 -180)" fill="none" stroke="#ff4c00" stroke-miterlimit="10" stroke-width="1"/>
        <path id="Path_68" data-name="Path 68" d="M178.59,183.766l1.065.933a4.989,4.989,0,0,1,2.085-2.409" transform="translate(-178.451 -179.942)" fill="none" stroke="#ff4c00" stroke-linecap="round" stroke-miterlimit="10" stroke-width="0.5"/>
        <path id="Path_69" data-name="Path 69" d="M179.12,186.433A4.018,4.018,0,0,1,181,188.083a4.892,4.892,0,0,1,1.99-2.973" transform="translate(-178.518 -179.871)" fill="none" stroke="#ff4c00" stroke-linecap="round" stroke-miterlimit="10" stroke-width="0.5"/>
        <path id="Path_70" data-name="Path 70" d="M180.95,190.1a2.929,2.929,0,0,1,1.361,1.7,21.412,21.412,0,0,1,2.173-2.655" transform="translate(-178.752 -179.769)" fill="none" stroke="#ff4c00" stroke-linecap="round" stroke-miterlimit="10" stroke-width="0.5"/>
        <path id="Path_71" data-name="Path 71" d="M181.58,193.36a3.578,3.578,0,0,1,1.379,2.5,6.558,6.558,0,0,1,2.5-2.42" transform="translate(-178.832 -179.662)" fill="none" stroke="#ff4c00" stroke-linecap="round" stroke-miterlimit="10" stroke-width="0.5"/>
        <path id="Path_72" data-name="Path 72" d="M182.05,197.817a.877.877,0,0,1,.925.482,3.562,3.562,0,0,1,.375,1.179,6.018,6.018,0,0,1,3.342-2.348" transform="translate(-178.891 -179.567)" fill="none" stroke="#ff4c00" stroke-linecap="round" stroke-miterlimit="10" stroke-width="0.5"/>
        <path id="Path_73" data-name="Path 73" d="M182.61,200.28a2.435,2.435,0,0,1,.6,1.835l3.438-1.374" transform="translate(-178.963 -179.487)" fill="none" stroke="#ff4c00" stroke-linecap="round" stroke-miterlimit="10" stroke-width="0.5"/>
        <path id="Path_74" data-name="Path 74" d="M182.34,204.53a4.521,4.521,0,0,1,.576,1.64,13.4,13.4,0,0,1,3.115-1.487" transform="translate(-178.929 -179.38)" fill="none" stroke="#ff4c00" stroke-linecap="round" stroke-miterlimit="10" stroke-width="0.5"/>
        <path id="Path_75" data-name="Path 75" d="M181.41,207.49a17.736,17.736,0,0,1,.1,2.686q1.9-.482,3.839-.8" transform="translate(-178.81 -179.305)" fill="none" stroke="#ff4c00" stroke-linecap="round" stroke-miterlimit="10" stroke-width="0.5"/>
      </g>
      <path id="Path_76" data-name="Path 76" d="M231.8,180s-10.227,20.995-.489,29.791" transform="translate(3658.979 -141.096)" fill="none" stroke="#ff4c00" stroke-miterlimit="10" stroke-width="1"/>
      <path id="Path_77" data-name="Path 77" d="M231.87,183.547l-1.065.794a4.538,4.538,0,0,0-2.086-2.051" transform="translate(3658.774 -141.388)" fill="none" stroke="#ff4c00" stroke-linecap="round" stroke-miterlimit="10" stroke-width="0.5"/>
      <path id="Path_78" data-name="Path 78" d="M231.246,186.236a3.892,3.892,0,0,0-1.876,1.4,4.206,4.206,0,0,0-1.99-2.531" transform="translate(3658.945 -141.747)" fill="none" stroke="#ff4c00" stroke-linecap="round" stroke-miterlimit="10" stroke-width="0.5"/>
      <path id="Path_79" data-name="Path 79" d="M229.484,189.962a2.618,2.618,0,0,0-1.361,1.449,19.2,19.2,0,0,0-2.173-2.26" transform="translate(3659.127 -142.262)" fill="none" stroke="#ff4c00" stroke-linecap="round" stroke-miterlimit="10" stroke-width="0.5"/>
      <path id="Path_80" data-name="Path 80" d="M228.774,193.36a2.967,2.967,0,0,0-1.379,2.129,6.213,6.213,0,0,0-2.5-2.059" transform="translate(3659.261 -142.798)" fill="none" stroke="#ff4c00" stroke-linecap="round" stroke-miterlimit="10" stroke-width="0.5"/>
      <path id="Path_81" data-name="Path 81" d="M228.192,197.715a.925.925,0,0,0-.925.41,2.723,2.723,0,0,0-.375,1,6.108,6.108,0,0,0-3.342-2" transform="translate(3659.433 -143.278)" fill="none" stroke="#ff4c00" stroke-linecap="round" stroke-miterlimit="10" stroke-width="0.5"/>
      <path id="Path_82" data-name="Path 82" d="M227.72,200.28a1.885,1.885,0,0,0-.6,1.562l-3.438-1.169" transform="translate(3659.416 -143.679)" fill="none" stroke="#ff4c00" stroke-linecap="round" stroke-miterlimit="10" stroke-width="0.5"/>
      <path id="Path_83" data-name="Path 83" d="M228.051,204.53a3.49,3.49,0,0,0-.576,1.4,14.539,14.539,0,0,0-3.115-1.265" transform="translate(3659.329 -144.221)" fill="none" stroke="#ff4c00" stroke-linecap="round" stroke-miterlimit="10" stroke-width="0.5"/>
      <path id="Path_84" data-name="Path 84" d="M228.945,207.49a12.861,12.861,0,0,0-.1,2.286q-1.9-.41-3.839-.681" transform="translate(3659.247 -144.598)" fill="none" stroke="#ff4c00" stroke-linecap="round" stroke-miterlimit="10" stroke-width="0.5"/>
    </g>
  </g>
</svg>
